PathFileType	4	(X/Y/Z)	Patient4_TMGait_0pt5_02_left_08.trc.trc
DataRate	CameraRate	NumFrames	NumMarkers	Units	OrigDataRate	OrigDataStartFrame	OrigNumFrames
78.212290502793	78.212290502793	7	33	mm	78.212290502793	18	       141
Frame#	Time	Sacral			L.Shoulder			Chest			R.Shoulder			Neck			R.ASIS			L.ASIS			R.Thigh.Superior			R.Thigh.Lateral			R.Thigh.Inferior			R.Patella			L.Thigh.Superior			L.Thigh.Lateral			L.Thigh.Inferior			L.Patella			L.Shank.Superior			L.Shank.Lateral			L.Shank.Inferior			R.Shank.Superior			R.Shank.Lateral			R.Shank.Inferior			R.Heel			R.Midfoot.Superior			R.Midfoot.Lateral			R.Toe			L.Heel			L.Midfoot.Lateral			L.Midfoot.Superior			L.Toe			L.Elbow			L.Wrist			R.Elbow			R.Wrist			
		X1	Y1	Z1	X2	Y2	Z2	X3	Y3	Z3	X4	Y4	Z4	X5	Y5	Z5	X6	Y6	Z6	X7	Y7	Z7	X8	Y8	Z8	X9	Y9	Z9	X10	Y10	Z10	X11	Y11	Z11	X12	Y12	Z12	X13	Y13	Z13	X14	Y14	Z14	X15	Y15	Z15	X16	Y16	Z16	X17	Y17	Z17	X18	Y18	Z18	X19	Y19	Z19	X20	Y20	Z20	X21	Y21	Z21	X22	Y22	Z22	X23	Y23	Z23	X24	Y24	Z24	X25	Y25	Z25	X26	Y26	Z26	X27	Y27	Z27	X28	Y28	Z28	X29	Y29	Z29	X30	Y30	Z30	X31	Y31	Z31	X32	Y32	Z32	X33	Y33	Z33	

18	10.037357142857	541.650295675109	1009.669397602510	550.132581409553	696.932748301859	1443.895235384348	369.571168009828	822.559786626615	1358.952939098632	505.745892039202	772.819834900174	1425.860372364181	695.126258773014	723.526246612881	1493.558383110408	522.360005150770	776.687027911273	938.554919445097	637.484512707602	732.169291899191	960.570479157316	365.405130635284	779.533747737458	729.155565101346	608.753228917972	679.981789317884	632.074279689295	670.929519261449	739.857779356007	569.424733820420	588.705160745947	725.496431001397	484.344558120373	592.168046303320	806.672683574726	776.519749786896	393.540478173559	759.658190917109	648.407520235229	316.722034058740	862.115560527237	587.709188453565	378.013104050982	891.000308547456	524.448968046047	372.893112502909	878.066894954635	454.705353383381	361.735363572562	819.345481743523	321.707414046438	309.843327341437	912.563815626748	227.690146624830	363.785613360892	690.314251045362	400.646967033282	595.534855674283	612.275744727802	299.602472607068	652.216492591073	649.355347192732	205.006133067694	585.242202585590	507.035864956794	43.663648354963	544.098366977047	678.224807770038	96.289580714688	585.802569157445	588.006773332936	36.087800372326	621.183068506837	796.350455068925	41.759690701269	616.920130845609	840.342540369101	40.714267662838	402.329807417991	913.329510402772	51.619606045046	321.910478854293	977.304312848428	135.250126650805	341.419382663244	1112.707013915942	117.939236492308	315.295742422986	539.384801597284	1124.162035042940	278.838481810287	509.257131124973	863.938492221759	302.359963178869	910.073619301478	1118.061924080594	796.142296406645	1126.557745843373	1210.714506498796	711.236594444516	
19	10.050142857143	541.832081930949	1008.914676162467	549.241422282578	696.539421895332	1443.239028120623	368.611476311743	822.226929366800	1358.325571923265	504.752358934558	772.391072818034	1425.089836226337	694.107542674199	722.984844118138	1492.803453555951	521.509667370369	776.791355550392	938.084364157184	636.987107075138	732.470429132006	959.503506037978	364.707931236328	778.384289754476	728.371078242544	608.453702565387	677.978201419740	631.840414716546	670.610328450120	737.552645928413	568.736926425277	588.571142822683	722.387048346090	483.548166383604	591.993530853060	806.631613993506	774.944657287126	392.546500055365	757.690456608474	646.081573479127	317.333610754968	860.873214052136	585.600247399984	377.304234785967	889.435890496281	522.566609516594	372.830285919834	876.635187869087	452.887957448650	362.362954401836	818.043565380261	319.453198476072	311.822190221431	912.069491992214	226.099216302298	365.400272437620	686.562526230904	400.101853278415	595.426010732457	607.656837987629	299.753065048299	652.235081214831	643.944353427117	204.755826691524	585.275807341920	500.612754060287	43.780569913788	544.201051765237	671.843264085390	96.263358505368	585.891640422361	581.575873689772	36.051281308285	621.216508918951	789.926987682452	41.602820295245	616.975526277499	840.275042204405	40.175557179456	405.496266976374	912.678592096966	50.133578008665	324.504488635650	977.542363990224	132.974698305637	343.231273159797	1112.455414884000	114.229315859563	316.177734237917	538.913215116623	1123.862970978593	277.257053967051	510.026696396054	863.433536019108	301.299216350167	912.194713411644	1118.264681922559	793.546406031835	1126.392526157449	1214.268837905283	706.982743134573	
20	10.062928571429	542.199759663427	1008.040979246835	548.145122022800	696.172187212769	1442.472714218528	367.453521729582	821.897593124938	1357.707554376565	503.659547904693	771.802487514901	1424.313370483172	692.961806219252	722.353395512780	1491.996839078392	520.469616081117	777.041728607562	937.547366095738	636.418370151374	733.086699198503	958.338982258565	363.926686454258	777.473755503280	727.520443429332	608.076233850383	676.260915109077	631.517902589629	670.198820251960	735.565740394645	567.983289307665	588.329707618314	719.563479031272	482.665725489910	591.697804403647	806.867052852527	773.203723670048	391.473315336889	755.929514424849	643.638902847695	317.917027735885	859.752957100359	583.352045059214	376.663978256118	887.925158916095	520.357866850287	372.841116233731	874.984821246612	450.637570417083	363.114052970563	815.963276206386	317.041138611866	313.854564265334	910.270621346937	223.916077587893	367.173589183801	683.084466630182	399.451168462063	595.237943301000	603.240796960115	299.867746287697	652.191628311160	638.639573211020	204.438385884482	585.264959337204	494.195604663677	43.904718214937	544.304237496194	665.470123480774	96.240501865793	585.990759519941	575.152487482797	36.013538836592	621.254102696489	783.512025498522	41.432905957255	617.040123886142	837.839272849247	39.593623905241	408.481733183596	909.872420295314	48.301780790452	327.078346767400	976.129937170983	129.791130055556	345.372798262382	1110.457059064581	108.712781560662	317.593018598619	538.915656815886	1123.228344248503	275.313277784168	511.771758710396	862.537366426839	299.619067877160	913.646998086507	1118.243427610249	791.158292246401	1126.008295836804	1216.663143777927	703.031546209376	
21	10.075714285714	542.740872088496	1007.055746574021	546.838216959886	695.848677005469	1441.595061037691	366.092610390111	821.584564528454	1357.098532303672	502.466518374944	771.064628796968	1423.536806015835	691.687381306840	721.655604334870	1491.145428006069	519.226290296100	777.427013310434	936.931843438368	635.772012301453	734.011896287674	957.085348881250	363.067374714483	776.816446698965	726.594355603013	607.641801401289	674.825938070621	631.094035859720	669.686432939143	733.899440583854	567.150648086316	587.982156290735	717.032758777641	481.681072604166	591.270423888819	807.326353696928	771.267797749219	390.367054317610	754.375304893671	641.131123292149	318.415255524873	858.677078598945	580.967199238480	376.150373422654	886.383824945086	517.869611861172	372.996329864963	873.124901659909	448.039372198710	363.970718440769	813.288853897215	314.495565608435	315.840367501286	907.434925579266	221.250138079152	369.046348827835	679.875532687172	398.685800580948	594.954434188602	599.028751904240	299.942477662156	652.071188574758	633.439459311338	204.054385534990	585.198586788675	487.785761011214	44.047222198961	544.407821036194	659.106426292009	96.224493798662	586.099827363821	568.737597418903	35.984836728635	621.296726258319	777.104670280685	41.245773633956	617.115793307036	833.483958450023	38.970174497533	411.137442475029	905.396955177228	46.230298347662	329.527503321337	973.430125715839	125.882876330404	347.804301893696	1107.113219307877	101.749650654311	319.589379137087	539.387810292313	1122.257681069651	273.037024614531	514.447882025498	861.263924017443	297.346028263003	914.443006441084	1117.987479575599	789.011590918729	1125.468852108249	1217.880122352719	699.422439990092	
22	10.088500000000	543.430564670065	1005.979796126887	545.322740449805	695.591680291076	1440.615821146700	364.526465428297	821.303128433704	1356.505602887514	501.174377669056	770.196884800222	1422.779799157313	690.283120505306	720.923581274102	1490.267814642056	517.766442734986	777.928970865212	936.234498481056	635.043173724602	735.221235976845	955.769849639554	362.141294185426	776.416279490821	725.595133834176	607.159434822889	673.666653075656	630.566921117672	669.059215460169	732.553590917943	566.235869465121	587.522662441355	714.805771882287	480.584803493626	590.698598481550	807.968467240708	769.148281842648	389.270115620498	753.034116252114	638.636473791494	318.773825439849	857.598089188284	578.491321336227	375.801014154813	884.754423550474	515.193614032265	373.333366182020	871.091470438510	445.218464191846	364.885828545714	810.221885478017	311.885245715527	317.676158078328	903.856461207806	218.263460104495	370.935191085130	676.931222919095	397.807005119198	594.557889972658	595.021350843995	299.983780742100	651.857968900893	628.344308398484	203.614256650675	585.067275807633	481.386344364839	44.231223416144	544.513021637497	652.756432759239	96.220575239492	586.217525921821	562.333292573864	35.980925758741	621.345011512169	770.705272373601	41.035511684120	617.204212629968	827.715948250662	38.344193789196	413.366027903637	899.750453897204	44.060739969413	331.756723470210	969.804563702406	121.502375439895	350.430045986657	1102.813793967429	93.808539711267	322.092519233640	540.337153422491	1120.960363868597	270.458831335919	518.010311940749	859.638858782930	294.511089365628	914.597545136701	1117.498790019238	787.128360764821	1124.833789464356	1217.902660540110	696.195157990001	
23	10.101285714286	544.234025478644	1004.848422356686	543.609054653811	695.425903877198	1439.558155705671	362.757560922611	821.069787007993	1355.944295460717	499.786249168147	769.229541642294	1422.076169333037	688.749397522240	720.195842218269	1489.394878531394	516.080470153974	778.522709662719	935.463945575035	634.227302925305	736.670274752814	954.439999024770	361.161490904503	776.265162633444	724.539857303722	606.621623498025	672.775830697406	629.948498273218	668.298971897366	731.526215087374	565.248904791674	586.938348956128	712.897563952398	479.377321034143	589.970064798363	808.765855330311	766.904719472438	388.217550958632	751.927942493595	636.258111237368	318.945257036709	856.512593659737	576.018705510714	375.629916476648	883.022939695578	512.462007105217	373.851209817546	868.953022302370	442.328972877746	365.790490556530	806.969236413287	309.317788272122	319.258502459773	899.825623057306	215.149214252093	372.741295518473	674.248870276219	396.829193661796	594.032600299679	591.219617353074	300.010784995378	651.537962999066	623.357482201788	203.140077814178	584.865577653598	475.003073262290	44.493925028689	544.622591654982	646.429171127790	96.235956537310	586.341622611483	555.943643746258	36.023391270976	621.399784565270	764.316450969170	40.795377746108	617.306582278962	821.043426010361	37.772029726863	415.121949862561	893.395338081081	41.943770487707	333.686835754807	965.573866147156	116.941631259623	353.108936185950	1097.902179885167	85.424730575338	324.926508725192	541.781950290291	1119.357995104854	267.609605403532	522.416857699719	857.700619549918	291.147601187478	914.125847424331	1116.792424655868	785.518070194888	1124.154727140426	1216.713478640552	693.387808479971	
24	10.114071428571	545.110302197940	1003.710905475978	541.715606089601	695.374018103281	1438.459294014922	360.795193405856	820.900605836501	1355.438097943457	498.306888568913	768.204511870212	1421.471805486517	687.088948578283	719.514193962059	1488.568228643858	514.165947639573	779.177853998661	934.642666534436	633.318499924220	738.296402081496	953.161965431109	360.137829540935	776.342798978741	723.461576682553	606.003151528472	672.146801390472	629.265916369857	667.385622174035	730.814093455479	564.214334550823	586.211714703843	711.327109052214	478.070615800478	589.077733665298	809.703442624690	764.644968711719	387.234204656213	751.101827967101	634.117723579794	318.892951231543	855.467842856219	573.687633118460	375.626780894138	881.227221760495	509.833159622097	374.512021109169	866.808190223757	439.536442492234	366.606094868391	803.726228506172	306.927023447132	320.490364848200	895.596140076012	212.105326569813	374.363887298364	671.828585371548	395.780849615172	593.368787329963	587.625119118662	300.055820636792	651.101986340624	618.485956460266	202.666095550556	584.594390603474	468.644575874236	44.886557907873	544.741060619942	640.139247027960	96.279656886547	586.469651599304	549.575144686285	36.139090125090	621.462395268189	757.943286175277	40.519171665312	617.423200813235	813.917489454187	37.307199101346	416.405530130274	886.713875356525	40.014066115819	335.261200793016	960.983094268433	112.496978436912	355.675997825053	1092.644945508788	77.147088082681	327.853559843862	543.747660830542	1117.486219060295	264.520717073617	527.630406469959	855.501127950207	287.289581683161	913.042411990369	1115.895812661456	784.177243717426	1123.470213841885	1214.295685506155	691.033405459163	
